<svg width="107" height="91" viewBox="0 0 107 91" fill="none" xmlns="http://www.w3.org/2000/svg">
<path d="M6.34342 82.1919C5.19832 82.1919 4.18927 81.9311 3.31627 81.4096C2.44327 80.888 1.76301 80.1624 1.27549 79.2327C0.787968 78.2917 0.544208 77.1976 0.544208 75.9505C0.544208 74.7033 0.787968 73.6149 1.27549 72.6852C1.76301 71.7555 2.44327 71.0299 3.31627 70.5084C4.18927 69.9869 5.19832 69.7261 6.34342 69.7261C7.64726 69.7261 8.76968 70.0549 9.71071 70.7125C10.6517 71.3587 11.3263 72.2544 11.7345 73.3995L9.21752 74.3008C8.99077 73.6659 8.62796 73.1727 8.12911 72.8213C7.64159 72.4585 7.04636 72.2771 6.34342 72.2771C5.70851 72.2771 5.15297 72.4245 4.67679 72.7192C4.21194 73.014 3.84914 73.4335 3.58837 73.9777C3.33894 74.5219 3.21423 75.1795 3.21423 75.9505C3.21423 76.7214 3.33894 77.3847 3.58837 77.9402C3.84914 78.4844 4.21194 78.9039 4.67679 79.1987C5.15297 79.4935 5.70851 79.6409 6.34342 79.6409C7.04636 79.6409 7.64159 79.4652 8.12911 79.1137C8.62796 78.7509 8.99077 78.252 9.21752 77.6171L11.7345 78.5185C11.3263 79.6522 10.6517 80.5479 9.71071 81.2055C8.76968 81.8631 7.64726 82.1919 6.34342 82.1919ZM12.702 81.8857V70.0322H15.27V75.4743H14.9298C15.0659 74.9074 15.2813 74.4709 15.5761 74.1648C15.8709 73.8473 16.1997 73.6263 16.5625 73.5015C16.9366 73.3768 17.2994 73.3145 17.6509 73.3145C18.6259 73.3145 19.3855 73.5866 19.9298 74.1308C20.474 74.6636 20.7461 75.3893 20.7461 76.3076V81.8857H18.1781V77.26C18.1781 76.6591 18.0704 76.2226 17.855 75.9505C17.6509 75.6784 17.3164 75.5423 16.8516 75.5423C16.3074 75.5423 15.9049 75.7407 15.6441 76.1375C15.3947 76.523 15.27 77.1353 15.27 77.9742V81.8857H12.702ZM26.038 82.0728C25.267 82.0728 24.6095 81.9538 24.0653 81.7157C23.521 81.4662 23.0789 81.1375 22.7387 80.7293C22.3986 80.3098 22.1492 79.845 21.9905 79.3348C21.8431 78.8132 21.7694 78.2804 21.7694 77.7362C21.7694 77.2146 21.8431 76.6931 21.9905 76.1716C22.1492 75.65 22.3873 75.1738 22.7047 74.743C23.0335 74.3122 23.4587 73.9664 23.9802 73.7056C24.5131 73.4449 25.1537 73.3145 25.902 73.3145C26.5595 73.3145 27.1378 73.4278 27.6366 73.6546C28.1355 73.87 28.5493 74.1761 28.8781 74.5729C29.2182 74.9698 29.4733 75.4403 29.6434 75.9845C29.8135 76.5287 29.8985 77.1239 29.8985 77.7702C29.8985 77.8835 29.8928 78.0026 29.8815 78.1273C29.8815 78.252 29.8701 78.4051 29.8475 78.5865H24.3374C24.4054 79.04 24.6151 79.3688 24.9666 79.5729C25.3294 79.7769 25.7432 79.879 26.2081 79.879C26.6162 79.879 27.0357 79.8109 27.4666 79.6749C27.8974 79.5275 28.2715 79.3291 28.589 79.0797L29.6774 80.8824C29.2352 81.1771 28.8327 81.4152 28.4699 81.5966C28.1071 81.7667 27.733 81.8857 27.3475 81.9538C26.9734 82.0331 26.5369 82.0728 26.038 82.0728ZM27.3815 77.311C27.4042 77.2203 27.4212 77.1296 27.4325 77.0389C27.4552 76.9482 27.4666 76.8632 27.4666 76.7838C27.4666 76.5684 27.4269 76.3813 27.3475 76.2226C27.2681 76.0525 27.1548 75.9108 27.0074 75.7974C26.8713 75.684 26.7126 75.599 26.5312 75.5423C26.3498 75.4743 26.1571 75.4403 25.953 75.4403C25.5788 75.4403 25.2727 75.5083 25.0346 75.6444C24.8079 75.7804 24.6378 75.9448 24.5244 76.1375C24.4111 76.3303 24.3374 76.5174 24.3033 76.6988H28.2318L27.3815 77.311ZM31.667 81.8857V75.4913H30.2895V73.5015H31.684V72.7533C31.684 71.971 31.8144 71.3701 32.0752 70.9506C32.3359 70.5311 32.6761 70.242 33.0956 70.0832C33.5264 69.9245 33.9856 69.8451 34.4731 69.8451C34.8472 69.8451 35.1704 69.8792 35.4425 69.9472C35.7146 70.0152 35.9753 70.1059 36.2248 70.2193L35.4085 72.175C35.3064 72.1183 35.1987 72.073 35.0853 72.039C34.9833 71.9936 34.8756 71.971 34.7622 71.971C34.5468 71.971 34.4051 72.0503 34.337 72.209C34.269 72.3564 34.235 72.5435 34.235 72.7703V73.5015H35.9016V75.4913H34.235V81.8857H31.667Z" fill="white"/>
<path d="M43.5407 81.8857V72.4131H40.0714V70.0322H49.6971V72.4131H46.2448V81.8857H43.5407ZM52.9109 82.0728C52.14 82.0728 51.4824 81.9538 50.9382 81.7157C50.394 81.4662 49.9518 81.1375 49.6117 80.7293C49.2715 80.3098 49.0221 79.845 48.8634 79.3348C48.716 78.8132 48.6423 78.2804 48.6423 77.7362C48.6423 77.2146 48.716 76.6931 48.8634 76.1716C49.0221 75.65 49.2602 75.1738 49.5777 74.743C49.9064 74.3122 50.3316 73.9664 50.8531 73.7056C51.386 73.4449 52.0266 73.3145 52.7749 73.3145C53.4325 73.3145 54.0107 73.4278 54.5095 73.6546C55.0084 73.87 55.4222 74.1761 55.751 74.5729C56.0911 74.9698 56.3462 75.4403 56.5163 75.9845C56.6864 76.5287 56.7714 77.1239 56.7714 77.7702C56.7714 77.8835 56.7657 78.0026 56.7544 78.1273C56.7544 78.252 56.7431 78.4051 56.7204 78.5865H51.2103C51.2783 79.04 51.4881 79.3688 51.8395 79.5729C52.2023 79.7769 52.6162 79.879 53.081 79.879C53.4892 79.879 53.9086 79.8109 54.3395 79.6749C54.7703 79.5275 55.1444 79.3291 55.4619 79.0797L56.5503 80.8824C56.1082 81.1771 55.7057 81.4152 55.3429 81.5966C54.9801 81.7667 54.6059 81.8857 54.2204 81.9538C53.8463 82.0331 53.4098 82.0728 52.9109 82.0728ZM54.2544 77.311C54.2771 77.2203 54.2941 77.1296 54.3055 77.0389C54.3281 76.9482 54.3395 76.8632 54.3395 76.7838C54.3395 76.5684 54.2998 76.3813 54.2204 76.2226C54.1411 76.0525 54.0277 75.9108 53.8803 75.7974C53.7442 75.684 53.5855 75.599 53.4041 75.5423C53.2227 75.4743 53.03 75.4403 52.8259 75.4403C52.4518 75.4403 52.1456 75.5083 51.9075 75.6444C51.6808 75.7804 51.5107 75.9448 51.3974 76.1375C51.284 76.3303 51.2103 76.5174 51.1763 76.6988H55.1048L54.2544 77.311ZM61.7882 82.0728C61.0172 82.0728 60.3596 81.9538 59.8154 81.7157C59.2712 81.4662 58.8291 81.1375 58.4889 80.7293C58.1488 80.3098 57.8994 79.845 57.7406 79.3348C57.5933 78.8132 57.5196 78.2804 57.5196 77.7362C57.5196 77.2146 57.5933 76.6931 57.7406 76.1716C57.8994 75.65 58.1375 75.1738 58.4549 74.743C58.7837 74.3122 59.2089 73.9664 59.7304 73.7056C60.2633 73.4449 60.9038 73.3145 61.6521 73.3145C62.3097 73.3145 62.8879 73.4278 63.3868 73.6546C63.8857 73.87 64.2995 74.1761 64.6283 74.5729C64.9684 74.9698 65.2235 75.4403 65.3936 75.9845C65.5636 76.5287 65.6487 77.1239 65.6487 77.7702C65.6487 77.8835 65.643 78.0026 65.6317 78.1273C65.6317 78.252 65.6203 78.4051 65.5976 78.5865H60.0875C60.1556 79.04 60.3653 79.3688 60.7168 79.5729C61.0796 79.7769 61.4934 79.879 61.9583 79.879C62.3664 79.879 62.7859 79.8109 63.2167 79.6749C63.6476 79.5275 64.0217 79.3291 64.3392 79.0797L65.4276 80.8824C64.9854 81.1771 64.5829 81.4152 64.2201 81.5966C63.8573 81.7667 63.4832 81.8857 63.0977 81.9538C62.7235 82.0331 62.287 82.0728 61.7882 82.0728ZM63.1317 77.311C63.1544 77.2203 63.1714 77.1296 63.1827 77.0389C63.2054 76.9482 63.2167 76.8632 63.2167 76.7838C63.2167 76.5684 63.1771 76.3813 63.0977 76.2226C63.0183 76.0525 62.9049 75.9108 62.7576 75.7974C62.6215 75.684 62.4628 75.599 62.2814 75.5423C62.1 75.4743 61.9072 75.4403 61.7032 75.4403C61.329 75.4403 61.0229 75.5083 60.7848 75.6444C60.5581 75.7804 60.388 75.9448 60.2746 76.1375C60.1612 76.3303 60.0875 76.5174 60.0535 76.6988H63.982L63.1317 77.311ZM66.2307 74.726L67.013 70.0322H69.9892L67.8974 74.726H66.2307ZM73.9583 82.0728C73.3007 82.0728 72.7339 81.9821 72.2577 81.8007C71.7815 81.608 71.3847 81.3812 71.0672 81.1204C70.7498 80.8597 70.489 80.6273 70.2849 80.4232L72.0196 78.8926C72.2123 79.1307 72.4618 79.3801 72.7679 79.6409C73.0853 79.9017 73.4878 80.032 73.9753 80.032C74.3155 80.032 74.5762 79.9697 74.7576 79.845C74.939 79.7089 75.0297 79.5672 75.0297 79.4198C75.0297 79.2837 74.9674 79.1704 74.8427 79.0797C74.718 78.989 74.5536 78.9096 74.3495 78.8416C74.1454 78.7622 73.913 78.6885 73.6522 78.6205C73.3348 78.5298 73.0003 78.4278 72.6488 78.3144C72.3087 78.1897 71.9856 78.0309 71.6795 77.8382C71.3847 77.6341 71.1409 77.379 70.9482 77.0729C70.7668 76.7668 70.6761 76.3813 70.6761 75.9165C70.6761 75.1342 70.9765 74.5049 71.5774 74.0287C72.1897 73.5526 72.9946 73.3145 73.9923 73.3145C74.6839 73.3145 75.3075 73.4449 75.8631 73.7056C76.4299 73.9664 76.8778 74.3405 77.2066 74.828L75.642 76.0865C75.4379 75.8144 75.1828 75.599 74.8767 75.4403C74.5706 75.2816 74.2531 75.2022 73.9243 75.2022C73.6749 75.2022 73.4708 75.2475 73.3121 75.3382C73.1534 75.4289 73.074 75.5423 73.074 75.6784C73.074 75.7691 73.108 75.8484 73.176 75.9165C73.2554 75.9845 73.3914 76.0525 73.5842 76.1205C73.7769 76.1772 74.0434 76.2509 74.3835 76.3416C74.7123 76.421 75.0581 76.5174 75.4209 76.6307C75.7837 76.7441 76.1238 76.9028 76.4413 77.1069C76.7701 77.2997 77.0365 77.5604 77.2406 77.8892C77.4447 78.218 77.5467 78.6318 77.5467 79.1307C77.5467 79.7089 77.3936 80.2191 77.0875 80.6613C76.7927 81.1034 76.3733 81.4492 75.829 81.6987C75.2962 81.9481 74.6726 82.0728 73.9583 82.0728ZM82.8259 81.8857V70.0322H86.9925C88.3643 70.0322 89.3904 70.3213 90.0707 70.8995C90.7623 71.4664 91.1081 72.3394 91.1081 73.5185C91.1081 74.6977 90.7566 75.5933 90.0537 76.2056C89.3621 76.8178 88.3417 77.1239 86.9925 77.1239H85.4789V81.8857H82.8259ZM85.4789 74.743H86.7204C87.2646 74.743 87.6841 74.6636 87.9789 74.5049C88.285 74.3462 88.438 74.0287 88.438 73.5526C88.438 73.0991 88.2963 72.7986 88.0129 72.6512C87.7408 72.4925 87.3099 72.4131 86.7204 72.4131H85.4789V74.743ZM95.5632 82.0728C94.7356 82.0728 93.993 81.8857 93.3354 81.5116C92.6891 81.1261 92.1789 80.6046 91.8048 79.947C91.4306 79.2781 91.2436 78.5241 91.2436 77.6851C91.2436 76.8348 91.4306 76.0809 91.8048 75.4233C92.1789 74.7657 92.6891 74.2498 93.3354 73.8757C93.993 73.5015 94.7356 73.3145 95.5632 73.3145C96.3909 73.3145 97.1278 73.5015 97.7741 73.8757C98.4203 74.2498 98.9305 74.7657 99.3047 75.4233C99.6788 76.0809 99.8659 76.8348 99.8659 77.6851C99.8659 78.5241 99.6788 79.2781 99.3047 79.947C98.9305 80.6046 98.4203 81.1261 97.7741 81.5116C97.1278 81.8857 96.3909 82.0728 95.5632 82.0728ZM95.5632 79.828C95.9374 79.828 96.2548 79.7486 96.5156 79.5899C96.7764 79.4198 96.9691 79.176 97.0938 78.8586C97.2299 78.5298 97.2979 78.1386 97.2979 77.6851C97.2979 77.2203 97.2299 76.8348 97.0938 76.5287C96.9691 76.2112 96.7764 75.9731 96.5156 75.8144C96.2548 75.6444 95.9374 75.5593 95.5632 75.5593C95.1891 75.5593 94.8716 75.6444 94.6109 75.8144C94.3501 75.9731 94.1517 76.2112 94.0156 76.5287C93.8796 76.8348 93.8116 77.2203 93.8116 77.6851C93.8116 78.1386 93.8796 78.5298 94.0156 78.8586C94.1517 79.176 94.3501 79.4198 94.6109 79.5899C94.8716 79.7486 95.1891 79.828 95.5632 79.828ZM104.429 82.0728C103.953 82.0728 103.5 81.9821 103.069 81.8007C102.638 81.6193 102.287 81.3245 102.014 80.9164C101.754 80.4969 101.623 79.93 101.623 79.2157V71.7499L104.208 70.3723V78.4844C104.208 78.9833 104.271 79.3574 104.395 79.6069C104.52 79.8563 104.769 79.981 105.144 79.981C105.257 79.981 105.382 79.9697 105.518 79.947C105.654 79.9243 105.801 79.8903 105.96 79.845V81.8007C105.71 81.8914 105.461 81.9594 105.212 82.0048C104.962 82.0501 104.701 82.0728 104.429 82.0728ZM100.229 75.4913V73.5015H105.96V75.4913H100.229Z" fill="white"/>
<path d="M46.9797 89.0332V88.2966H47.6929V89.0332H46.9797ZM48.2672 89.0332V88.2966H48.9804V89.0332H48.2672ZM49.5547 89.0332V88.2966H50.2679V89.0332H49.5547ZM50.9123 89.0332V84.9586H53.619V85.5607H51.5904V86.6422H53.4611V87.2502H51.5904V88.4311H53.619V89.0332H50.9123ZM53.9 89.0332L54.8997 87.5834L53.9 86.1511H54.6776L55.3323 87.1508L55.9988 86.1511H56.7646L55.7591 87.5834L56.7646 89.0332H55.9871L55.3323 88.016L54.6659 89.0332H53.9ZM57.1573 90.2258V86.1511H57.8004V86.952L57.6367 86.9579C57.6873 86.7474 57.7614 86.5798 57.8588 86.4551C57.9602 86.3304 58.079 86.2408 58.2154 86.1862C58.3557 86.1277 58.5038 86.0985 58.6597 86.0985C58.9169 86.0985 59.1391 86.1648 59.3262 86.2973C59.5132 86.4259 59.6574 86.6032 59.7588 86.8293C59.864 87.0553 59.9166 87.3106 59.9166 87.5951C59.9166 87.903 59.8601 88.1699 59.7471 88.396C59.6341 88.6181 59.4821 88.7896 59.2911 88.9104C59.104 89.0274 58.8936 89.0858 58.6597 89.0858C58.496 89.0858 58.344 89.0546 58.2037 88.9923C58.0673 88.9299 57.9504 88.8364 57.853 88.7117C57.7594 88.587 57.6932 88.435 57.6542 88.2557L57.8004 88.2265V90.2258H57.1573ZM58.5019 88.4954C58.6539 88.4954 58.7864 88.4583 58.8994 88.3843C59.0163 88.3102 59.106 88.205 59.1683 88.0686C59.2307 87.9322 59.2619 87.7744 59.2619 87.5951C59.2619 87.4158 59.2307 87.258 59.1683 87.1216C59.106 86.9852 59.0163 86.8799 58.8994 86.8059C58.7864 86.7318 58.6539 86.6948 58.5019 86.6948C58.3499 86.6948 58.2154 86.7318 58.0985 86.8059C57.9855 86.8799 57.8978 86.9852 57.8354 87.1216C57.7731 87.258 57.7419 87.4158 57.7419 87.5951C57.7419 87.7744 57.7731 87.9322 57.8354 88.0686C57.8978 88.2011 57.9855 88.3064 58.0985 88.3843C58.2154 88.4583 58.3499 88.4954 58.5019 88.4954ZM61.6885 89.0858C61.4469 89.0858 61.2364 89.0468 61.0572 88.9689C60.8818 88.891 60.7376 88.7818 60.6246 88.6415C60.5115 88.5012 60.4278 88.3434 60.3732 88.168C60.3186 87.9887 60.2913 87.8036 60.2913 87.6126C60.2913 87.4217 60.3167 87.2365 60.3673 87.0573C60.4219 86.8741 60.5038 86.7104 60.6129 86.5662C60.722 86.422 60.8623 86.309 61.0338 86.2271C61.2053 86.1414 61.4079 86.0985 61.6418 86.0985C61.8639 86.0985 62.0568 86.1375 62.2205 86.2154C62.3881 86.2895 62.5265 86.3947 62.6356 86.5311C62.7447 86.6636 62.8246 86.8156 62.8753 86.9871C62.9298 87.1586 62.9571 87.3418 62.9571 87.5366C62.9571 87.5639 62.9552 87.6029 62.9513 87.6536C62.9513 87.7042 62.9474 87.7549 62.9396 87.8055H60.9403C60.9558 88.0355 61.0338 88.2109 61.1741 88.3317C61.3144 88.4525 61.4937 88.5129 61.7119 88.5129C61.8717 88.5129 62.0179 88.4876 62.1504 88.4369C62.2829 88.3862 62.4037 88.3064 62.5128 88.1972L62.8694 88.6298C62.7486 88.739 62.6278 88.8266 62.507 88.8929C62.3862 88.9592 62.2595 89.0079 62.127 89.039C61.9984 89.0702 61.8522 89.0858 61.6885 89.0858ZM62.3199 87.4782C62.3277 87.447 62.3316 87.4158 62.3316 87.3846C62.3355 87.3535 62.3374 87.3223 62.3374 87.2911C62.3374 87.2054 62.3219 87.1235 62.2907 87.0456C62.2634 86.9676 62.2205 86.8994 62.1621 86.841C62.1036 86.7786 62.0315 86.7299 61.9458 86.6948C61.86 86.6558 61.7626 86.6363 61.6535 86.6363C61.5015 86.6363 61.3729 86.6695 61.2676 86.7357C61.1663 86.802 61.0864 86.8877 61.0279 86.993C60.9734 87.0943 60.9403 87.2054 60.9286 87.3262H62.5304L62.3199 87.4782ZM63.4717 89.0332V86.1511H64.1264V86.9286L64.0036 86.9462C64.0231 86.7786 64.0796 86.6325 64.1732 86.5077C64.2667 86.3791 64.3797 86.2797 64.5122 86.2096C64.6486 86.1355 64.7831 86.0985 64.9156 86.0985C65.0091 86.0985 65.0988 86.1102 65.1845 86.1336C65.2703 86.157 65.3599 86.196 65.4534 86.2505L65.1378 86.8351C65.0949 86.8078 65.0384 86.7864 64.9682 86.7708C64.902 86.7513 64.8377 86.7416 64.7753 86.7416C64.6935 86.7416 64.6116 86.7572 64.5298 86.7883C64.4518 86.8195 64.3817 86.8682 64.3193 86.9345C64.257 86.9969 64.2102 87.0787 64.179 87.18C64.1595 87.2346 64.1439 87.3067 64.1323 87.3963C64.1245 87.4821 64.1206 87.6029 64.1206 87.7588V89.0332H63.4717ZM65.8037 89.0332V86.1511H66.4526V89.0332H65.8037ZM65.7745 85.6776V84.9586H66.4819V85.6776H65.7745ZM68.3541 89.0858C68.1125 89.0858 67.902 89.0468 67.7227 88.9689C67.5474 88.891 67.4032 88.7818 67.2901 88.6415C67.1771 88.5012 67.0933 88.3434 67.0388 88.168C66.9842 87.9887 66.9569 87.8036 66.9569 87.6126C66.9569 87.4217 66.9822 87.2365 67.0329 87.0573C67.0875 86.8741 67.1693 86.7104 67.2784 86.5662C67.3876 86.422 67.5279 86.309 67.6993 86.2271C67.8708 86.1414 68.0735 86.0985 68.3073 86.0985C68.5295 86.0985 68.7224 86.1375 68.8861 86.2154C69.0537 86.2895 69.192 86.3947 69.3011 86.5311C69.4103 86.6636 69.4902 86.8156 69.5408 86.9871C69.5954 87.1586 69.6227 87.3418 69.6227 87.5366C69.6227 87.5639 69.6207 87.6029 69.6168 87.6536C69.6168 87.7042 69.6129 87.7549 69.6051 87.8055H67.6058C67.6214 88.0355 67.6993 88.2109 67.8397 88.3317C67.98 88.4525 68.1592 88.5129 68.3775 88.5129C68.5373 88.5129 68.6834 88.4876 68.8159 88.4369C68.9484 88.3862 69.0693 88.3064 69.1784 88.1972L69.535 88.6298C69.4142 88.739 69.2934 88.8266 69.1725 88.8929C69.0517 88.9592 68.9251 89.0079 68.7925 89.039C68.6639 89.0702 68.5178 89.0858 68.3541 89.0858ZM68.9855 87.4782C68.9933 87.447 68.9972 87.4158 68.9972 87.3846C69.0011 87.3535 69.003 87.3223 69.003 87.2911C69.003 87.2054 68.9874 87.1235 68.9562 87.0456C68.929 86.9676 68.8861 86.8994 68.8276 86.841C68.7692 86.7786 68.6971 86.7299 68.6113 86.6948C68.5256 86.6558 68.4281 86.6363 68.319 86.6363C68.167 86.6363 68.0384 86.6695 67.9332 86.7357C67.8319 86.802 67.752 86.8877 67.6935 86.993C67.6389 87.0943 67.6058 87.2054 67.5941 87.3262H69.1959L68.9855 87.4782ZM70.1372 89.0332V86.1511H70.7861V86.7883L70.6692 86.8176C70.7199 86.65 70.7939 86.5136 70.8913 86.4084C70.9888 86.3031 71.1018 86.2252 71.2304 86.1745C71.3629 86.1239 71.5013 86.0985 71.6455 86.0985C71.969 86.0985 72.2203 86.1921 72.3996 86.3791C72.5828 86.5623 72.6744 86.8254 72.6744 87.1683V89.0332H72.0255V87.408C72.0255 87.1508 71.9787 86.9618 71.8852 86.841C71.7916 86.7201 71.6474 86.6597 71.4526 86.6597C71.3084 86.6597 71.1856 86.6948 71.0843 86.765C70.9868 86.8312 70.9128 86.9364 70.8621 87.0806C70.8115 87.2248 70.7861 87.408 70.7861 87.6302V89.0332H70.1372ZM74.531 89.0858C74.305 89.0858 74.1043 89.0468 73.9289 88.9689C73.7574 88.8871 73.6132 88.776 73.4963 88.6357C73.3833 88.4915 73.2975 88.3297 73.2391 88.1505C73.1806 87.9712 73.1514 87.7841 73.1514 87.5892C73.1514 87.3944 73.1806 87.2073 73.2391 87.028C73.2975 86.8488 73.3833 86.689 73.4963 86.5487C73.6132 86.4084 73.7574 86.2992 73.9289 86.2213C74.1043 86.1394 74.305 86.0985 74.531 86.0985C74.8155 86.0985 75.063 86.1667 75.2735 86.3031C75.4878 86.4395 75.6457 86.65 75.747 86.9345L75.1741 87.1566C75.1273 87.0085 75.0513 86.8897 74.9461 86.8C74.8409 86.7065 74.7025 86.6597 74.531 86.6597C74.3595 86.6597 74.2192 86.7046 74.1101 86.7942C74.0049 86.8838 73.9269 86.9988 73.8763 87.1391C73.8256 87.2794 73.8003 87.4295 73.8003 87.5892C73.8003 87.749 73.8256 87.901 73.8763 88.0452C73.9269 88.1855 74.0049 88.3005 74.1101 88.3901C74.2192 88.4759 74.3595 88.5188 74.531 88.5188C74.7025 88.5188 74.8409 88.4739 74.9461 88.3843C75.0513 88.2947 75.1273 88.1758 75.1741 88.0277L75.747 88.2498C75.6457 88.5304 75.4878 88.7409 75.2735 88.8812C75.063 89.0176 74.8155 89.0858 74.531 89.0858ZM77.4802 89.0858C77.2386 89.0858 77.0281 89.0468 76.8489 88.9689C76.6735 88.891 76.5293 88.7818 76.4163 88.6415C76.3032 88.5012 76.2194 88.3434 76.1649 88.168C76.1103 87.9887 76.083 87.8036 76.083 87.6126C76.083 87.4217 76.1084 87.2365 76.159 87.0573C76.2136 86.8741 76.2954 86.7104 76.4046 86.5662C76.5137 86.422 76.654 86.309 76.8255 86.2271C76.997 86.1414 77.1996 86.0985 77.4335 86.0985C77.6556 86.0985 77.8485 86.1375 78.0122 86.2154C78.1798 86.2895 78.3182 86.3947 78.4273 86.5311C78.5364 86.6636 78.6163 86.8156 78.667 86.9871C78.7215 87.1586 78.7488 87.3418 78.7488 87.5366C78.7488 87.5639 78.7469 87.6029 78.743 87.6536C78.743 87.7042 78.7391 87.7549 78.7313 87.8055H76.7319C76.7475 88.0355 76.8255 88.2109 76.9658 88.3317C77.1061 88.4525 77.2854 88.5129 77.5036 88.5129C77.6634 88.5129 77.8096 88.4876 77.9421 88.4369C78.0746 88.3862 78.1954 88.3064 78.3045 88.1972L78.6611 88.6298C78.5403 88.739 78.4195 88.8266 78.2987 88.8929C78.1778 88.9592 78.0512 89.0079 77.9187 89.039C77.7901 89.0702 77.6439 89.0858 77.4802 89.0858ZM78.1116 87.4782C78.1194 87.447 78.1233 87.4158 78.1233 87.3846C78.1272 87.3535 78.1291 87.3223 78.1291 87.2911C78.1291 87.2054 78.1135 87.1235 78.0824 87.0456C78.0551 86.9676 78.0122 86.8994 77.9538 86.841C77.8953 86.7786 77.8232 86.7299 77.7374 86.6948C77.6517 86.6558 77.5543 86.6363 77.4452 86.6363C77.2932 86.6363 77.1645 86.6695 77.0593 86.7357C76.958 86.802 76.8781 86.8877 76.8196 86.993C76.7651 87.0943 76.7319 87.2054 76.7202 87.3262H78.322L78.1116 87.4782ZM81.8634 90.2842C81.4386 90.2842 81.1035 90.2063 80.8579 90.0504C80.6124 89.8984 80.4896 89.6899 80.4896 89.4249C80.4896 89.4015 80.4896 89.3742 80.4896 89.343C80.4935 89.3119 80.4994 89.2807 80.5072 89.2495L81.2905 88.7409L81.4659 88.9104L81.0859 89.384C81.082 89.3957 81.0801 89.4054 81.0801 89.4132C81.0801 89.4249 81.0801 89.4366 81.0801 89.4483C81.0801 89.5691 81.1522 89.6607 81.2964 89.723C81.4445 89.7893 81.6335 89.8224 81.8634 89.8224C82.0583 89.8224 82.2142 89.7951 82.3311 89.7406C82.448 89.6899 82.5065 89.612 82.5065 89.5067C82.5065 89.4483 82.489 89.3996 82.4539 89.3606C82.4188 89.3255 82.3662 89.2963 82.296 89.2729C82.2259 89.2495 82.1382 89.2281 82.033 89.2086C81.9316 89.193 81.8108 89.1774 81.6705 89.1618C81.4951 89.1345 81.3217 89.0956 81.1502 89.0449C80.9826 88.9942 80.8423 88.9182 80.7293 88.8169C80.6202 88.7156 80.5656 88.5811 80.5656 88.4135C80.5656 88.2654 80.6163 88.131 80.7176 88.0102C80.819 87.8854 80.9534 87.7841 81.121 87.7062L81.4542 87.9634C81.3451 87.9868 81.2632 88.0277 81.2087 88.0862C81.1541 88.1407 81.1268 88.207 81.1268 88.2849C81.1268 88.3512 81.1522 88.4057 81.2028 88.4486C81.2535 88.4876 81.3256 88.5188 81.4191 88.5421C81.5166 88.5616 81.6315 88.5811 81.7641 88.6006C81.9628 88.624 82.146 88.6513 82.3136 88.6824C82.4812 88.7136 82.6273 88.7584 82.752 88.8169C82.8767 88.8715 82.9722 88.9475 83.0385 89.0449C83.1086 89.1423 83.1437 89.269 83.1437 89.4249C83.1437 89.7016 83.0307 89.914 82.8046 90.0621C82.5825 90.2102 82.2688 90.2842 81.8634 90.2842ZM81.7991 88.1972C81.5653 88.1972 81.3587 88.1524 81.1795 88.0628C81.0002 87.9731 80.8599 87.8504 80.7585 87.6945C80.6611 87.5347 80.6124 87.3554 80.6124 87.1566C80.6124 86.9423 80.665 86.7572 80.7702 86.6013C80.8755 86.4415 81.0158 86.3187 81.1911 86.233C81.3704 86.1433 81.5653 86.0985 81.7757 86.0985C81.9862 86.0985 82.1791 86.1433 82.3545 86.233C82.5299 86.3187 82.6702 86.4434 82.7754 86.6071C82.8845 86.7669 82.9391 86.9579 82.9391 87.18C82.9391 87.3827 82.8904 87.562 82.7929 87.7179C82.6994 87.8699 82.5669 87.9887 82.3954 88.0745C82.2239 88.1563 82.0252 88.1972 81.7991 88.1972ZM81.7874 87.6769C81.955 87.6769 82.0817 87.6263 82.1674 87.5249C82.2532 87.4197 82.296 87.295 82.296 87.1508C82.296 86.9949 82.2493 86.8702 82.1557 86.7767C82.0622 86.6792 81.9394 86.6305 81.7874 86.6305C81.6276 86.6305 81.499 86.6792 81.4016 86.7767C81.3081 86.8702 81.2613 86.993 81.2613 87.145C81.2613 87.293 81.3061 87.4197 81.3958 87.5249C81.4854 87.6263 81.616 87.6769 81.7874 87.6769ZM82.752 86.7357L82.2785 86.4317L82.9274 85.9056L83.2606 86.309L82.752 86.7357ZM83.5853 89.0332V86.1511H84.24V86.9286L84.1172 86.9462C84.1367 86.7786 84.1932 86.6325 84.2868 86.5077C84.3803 86.3791 84.4933 86.2797 84.6258 86.2096C84.7623 86.1355 84.8967 86.0985 85.0292 86.0985C85.1228 86.0985 85.2124 86.1102 85.2981 86.1336C85.3839 86.157 85.4735 86.196 85.567 86.2505L85.2514 86.8351C85.2085 86.8078 85.152 86.7864 85.0818 86.7708C85.0156 86.7513 84.9513 86.7416 84.8889 86.7416C84.8071 86.7416 84.7252 86.7572 84.6434 86.7883C84.5654 86.8195 84.4953 86.8682 84.4329 86.9345C84.3706 86.9969 84.3238 87.0787 84.2926 87.18C84.2731 87.2346 84.2575 87.3067 84.2459 87.3963C84.2381 87.4821 84.2342 87.6029 84.2342 87.7588V89.0332H83.5853ZM87.0261 89.0858C86.7844 89.0858 86.574 89.0468 86.3947 88.9689C86.2193 88.891 86.0751 88.7818 85.9621 88.6415C85.8491 88.5012 85.7653 88.3434 85.7107 88.168C85.6562 87.9887 85.6289 87.8036 85.6289 87.6126C85.6289 87.4217 85.6542 87.2365 85.7049 87.0573C85.7594 86.8741 85.8413 86.7104 85.9504 86.5662C86.0595 86.422 86.1998 86.309 86.3713 86.2271C86.5428 86.1414 86.7455 86.0985 86.9793 86.0985C87.2015 86.0985 87.3944 86.1375 87.5581 86.2154C87.7256 86.2895 87.864 86.3947 87.9731 86.5311C88.0823 86.6636 88.1621 86.8156 88.2128 86.9871C88.2674 87.1586 88.2947 87.3418 88.2947 87.5366C88.2947 87.5639 88.2927 87.6029 88.2888 87.6536C88.2888 87.7042 88.2849 87.7549 88.2771 87.8055H86.2778C86.2934 88.0355 86.3713 88.2109 86.5116 88.3317C86.6519 88.4525 86.8312 88.5129 87.0495 88.5129C87.2093 88.5129 87.3554 88.4876 87.4879 88.4369C87.6204 88.3862 87.7412 88.3064 87.8504 88.1972L88.207 88.6298C88.0862 88.739 87.9653 88.8266 87.8445 88.8929C87.7237 88.9592 87.597 89.0079 87.4645 89.039C87.3359 89.0702 87.1898 89.0858 87.0261 89.0858ZM87.6574 87.4782C87.6652 87.447 87.6691 87.4158 87.6691 87.3846C87.673 87.3535 87.675 87.3223 87.675 87.2911C87.675 87.2054 87.6594 87.1235 87.6282 87.0456C87.6009 86.9676 87.5581 86.8994 87.4996 86.841C87.4411 86.7786 87.369 86.7299 87.2833 86.6948C87.1976 86.6558 87.1001 86.6363 86.991 86.6363C86.839 86.6363 86.7104 86.6695 86.6052 86.7357C86.5038 86.802 86.4239 86.8877 86.3655 86.993C86.3109 87.0943 86.2778 87.2054 86.2661 87.3262H87.8679L87.6574 87.4782ZM90.6682 89.0332L90.6215 88.548V87.2151C90.6215 87.028 90.5649 86.8877 90.4519 86.7942C90.3389 86.6968 90.1811 86.648 89.9784 86.648C89.8225 86.648 89.6686 86.6792 89.5166 86.7416C89.3685 86.8 89.2321 86.8916 89.1073 87.0163L88.7449 86.5896C88.932 86.4142 89.1307 86.2895 89.3412 86.2154C89.5516 86.1375 89.7816 86.0985 90.031 86.0985C90.4207 86.0985 90.7228 86.1979 90.9371 86.3967C91.1554 86.5915 91.2645 86.8643 91.2645 87.2151V89.0332H90.6682ZM89.7738 89.0858C89.5594 89.0858 89.3685 89.0468 89.2009 88.9689C89.0372 88.891 88.9086 88.7818 88.815 88.6415C88.7254 88.5012 88.6806 88.3375 88.6806 88.1505C88.6806 87.9907 88.7137 87.8523 88.78 87.7354C88.8501 87.6185 88.9398 87.5269 89.0489 87.4606C89.1424 87.4022 89.2515 87.3613 89.3763 87.3379C89.501 87.3106 89.6315 87.2969 89.7679 87.2969H90.6741V87.7822H89.8615C89.7913 87.7822 89.7212 87.79 89.651 87.8055C89.5809 87.8172 89.5185 87.8406 89.4639 87.8757C89.425 87.9069 89.3918 87.9459 89.3646 87.9926C89.3412 88.0394 89.3295 88.0939 89.3295 88.1563C89.3295 88.281 89.3763 88.3804 89.4698 88.4545C89.5672 88.5246 89.6958 88.5597 89.8556 88.5597C89.9959 88.5597 90.1226 88.5285 90.2356 88.4661C90.3525 88.4038 90.4461 88.318 90.5162 88.2089C90.5864 88.0998 90.6215 87.977 90.6215 87.8406L90.8202 88.1622C90.7734 88.3648 90.6994 88.5363 90.5981 88.6766C90.4967 88.813 90.3759 88.9163 90.2356 88.9864C90.0953 89.0527 89.9414 89.0858 89.7738 89.0858ZM92.9186 89.0858C92.7744 89.0858 92.638 89.0585 92.5094 89.004C92.3847 88.9455 92.2853 88.8539 92.2112 88.7292C92.1372 88.6006 92.1002 88.433 92.1002 88.2265V85.4496L92.7549 85.0872V88.0452C92.7549 88.2089 92.7783 88.3356 92.8251 88.4252C92.8757 88.511 92.9654 88.5538 93.094 88.5538C93.133 88.5538 93.1778 88.5499 93.2284 88.5421C93.283 88.5304 93.3395 88.5168 93.398 88.5012V89.004C93.32 89.0313 93.2401 89.0507 93.1583 89.0624C93.0803 89.078 93.0004 89.0858 92.9186 89.0858ZM91.5506 86.6539V86.1511H93.398V86.6539H91.5506ZM95.4915 89.0332V86.6539H94.942V86.1511H95.4974V85.8238C95.4974 85.586 95.5363 85.4009 95.6143 85.2684C95.6922 85.132 95.7955 85.0384 95.9241 84.9878C96.0566 84.9332 96.2028 84.9059 96.3626 84.9059C96.4756 84.9059 96.575 84.9176 96.6607 84.941C96.7504 84.9605 96.8341 84.9897 96.9121 85.0287L96.7016 85.5198C96.6627 85.4964 96.6198 85.4788 96.573 85.4672C96.5302 85.4516 96.4834 85.4438 96.4327 85.4438C96.3275 85.4438 96.2515 85.4788 96.2047 85.549C96.1619 85.6153 96.1404 85.7068 96.1404 85.8238V86.1511H96.7718V86.6539H96.1404V89.0332H95.4915ZM98.3341 89.0858C98.0613 89.0858 97.8157 89.0215 97.5975 88.8929C97.3792 88.7643 97.2078 88.587 97.083 88.3609C96.9622 88.1349 96.9018 87.8776 96.9018 87.5892C96.9018 87.3008 96.9622 87.0436 97.083 86.8176C97.2078 86.5915 97.3773 86.4162 97.5916 86.2914C97.8099 86.1628 98.0574 86.0985 98.3341 86.0985C98.6147 86.0985 98.8602 86.1628 99.0707 86.2914C99.285 86.4162 99.4546 86.5915 99.5793 86.8176C99.704 87.0436 99.7663 87.3008 99.7663 87.5892C99.7663 87.8776 99.704 88.1349 99.5793 88.3609C99.4585 88.587 99.2889 88.7643 99.0707 88.8929C98.8563 89.0215 98.6108 89.0858 98.3341 89.0858ZM98.3399 88.5129C98.4997 88.5129 98.6381 88.4759 98.755 88.4018C98.8719 88.3278 98.9616 88.2206 99.0239 88.0803C99.0863 87.94 99.1174 87.7763 99.1174 87.5892C99.1174 87.3983 99.0863 87.2346 99.0239 87.0982C98.9616 86.9579 98.8719 86.8507 98.755 86.7767C98.6381 86.7026 98.4997 86.6656 98.3399 86.6656C98.1723 86.6656 98.0301 86.7046 97.9132 86.7825C97.7963 86.8565 97.7066 86.9618 97.6443 87.0982C97.5819 87.2346 97.5507 87.3983 97.5507 87.5892C97.5507 87.7763 97.5819 87.94 97.6443 88.0803C97.7066 88.2206 97.7963 88.3278 97.9132 88.4018C98.0301 88.4759 98.1723 88.5129 98.3399 88.5129ZM101.574 89.0858C101.301 89.0858 101.056 89.0215 100.837 88.8929C100.619 88.7643 100.448 88.587 100.323 88.3609C100.202 88.1349 100.142 87.8776 100.142 87.5892C100.142 87.3008 100.202 87.0436 100.323 86.8176C100.448 86.5915 100.617 86.4162 100.832 86.2914C101.05 86.1628 101.297 86.0985 101.574 86.0985C101.855 86.0985 102.1 86.1628 102.311 86.2914C102.525 86.4162 102.695 86.5915 102.819 86.8176C102.944 87.0436 103.006 87.3008 103.006 87.5892C103.006 87.8776 102.944 88.1349 102.819 88.3609C102.698 88.587 102.529 88.7643 102.311 88.8929C102.096 89.0215 101.851 89.0858 101.574 89.0858ZM101.58 88.5129C101.74 88.5129 101.878 88.4759 101.995 88.4018C102.112 88.3278 102.202 88.2206 102.264 88.0803C102.326 87.94 102.357 87.7763 102.357 87.5892C102.357 87.3983 102.326 87.2346 102.264 87.0982C102.202 86.9579 102.112 86.8507 101.995 86.7767C101.878 86.7026 101.74 86.6656 101.58 86.6656C101.412 86.6656 101.27 86.7046 101.153 86.7825C101.036 86.8565 100.947 86.9618 100.884 87.0982C100.822 87.2346 100.791 87.3983 100.791 87.5892C100.791 87.7763 100.822 87.94 100.884 88.0803C100.947 88.2206 101.036 88.3278 101.153 88.4018C101.27 88.4759 101.412 88.5129 101.58 88.5129ZM104.639 89.0858C104.381 89.0858 104.157 89.0215 103.966 88.8929C103.779 88.7604 103.635 88.5811 103.534 88.3551C103.432 88.129 103.382 87.8737 103.382 87.5892C103.382 87.2775 103.436 87.0105 103.545 86.7883C103.658 86.5662 103.81 86.3967 104.001 86.2797C104.192 86.1589 104.405 86.0985 104.639 86.0985C104.802 86.0985 104.952 86.1316 105.089 86.1979C105.229 86.2642 105.346 86.3616 105.44 86.4902C105.537 86.6149 105.605 86.7689 105.644 86.952L105.492 86.9579V84.9586H106.141V89.0332H105.492V88.2323L105.668 88.1914C105.617 88.4018 105.539 88.5733 105.434 88.7058C105.332 88.8344 105.213 88.9299 105.077 88.9923C104.941 89.0546 104.795 89.0858 104.639 89.0858ZM104.796 88.4895C104.948 88.4895 105.081 88.4525 105.194 88.3785C105.307 88.3044 105.395 88.1992 105.457 88.0628C105.519 87.9264 105.551 87.7685 105.551 87.5892C105.551 87.41 105.519 87.2541 105.457 87.1216C105.395 86.9852 105.307 86.8799 105.194 86.8059C105.081 86.7279 104.948 86.689 104.796 86.689C104.644 86.689 104.51 86.726 104.393 86.8C104.28 86.8741 104.19 86.9793 104.124 87.1157C104.062 87.2521 104.031 87.41 104.031 87.5892C104.031 87.7685 104.062 87.9264 104.124 88.0628C104.19 88.1992 104.28 88.3044 104.393 88.3785C104.51 88.4525 104.644 88.4895 104.796 88.4895Z" fill="white"/>
<g clip-path="url(#clip0_8466_49272)">
<path d="M70.0546 38.5145C69.9431 37.4955 69.5957 36.5165 69.0398 35.6552C68.7518 35.1958 68.3205 34.844 67.8125 34.6542C67.0936 34.3914 66.3 34.4234 65.6046 34.7433C65.1521 34.9353 65.0561 34.8941 64.9189 34.4142C64.9222 34.3594 64.9222 34.3044 64.9189 34.2496C64.8731 34.0315 64.7575 33.8342 64.5898 33.6874C64.5129 33.6321 64.4205 33.6024 64.3258 33.6024C64.2311 33.6024 64.1388 33.6321 64.0618 33.6874C63.8767 33.7696 63.8013 33.7285 63.7533 33.5365C63.7533 33.4816 63.7533 33.4268 63.7533 33.3719C63.7014 32.3304 63.5452 31.2968 63.287 30.2864C63.2232 30.0287 63.2 29.7627 63.2185 29.4979C63.2185 29.0659 63.2939 28.6339 63.3419 28.2088C63.4447 27.29 63.5133 26.3712 63.6024 25.4661C63.6286 25.3341 63.6117 25.1971 63.5544 25.0753C63.4488 24.863 63.4197 24.6208 63.4722 24.3896C63.5155 24.3119 63.539 24.2248 63.5407 24.1359C63.5956 23.6285 63.6093 23.1143 63.6642 22.6069C63.7053 22.2983 63.7807 21.9966 63.8081 21.688L64.0138 18.9933C64.0203 18.8039 64.0959 18.6234 64.2264 18.4859C64.4664 18.2322 64.6652 17.958 64.9121 17.6906C65.4332 17.0392 65.9406 16.3741 66.4137 15.6884C66.4992 15.6005 66.5545 15.4876 66.5714 15.3661C66.6194 15.2838 66.6743 15.2016 66.7154 15.1193C66.7565 15.037 66.8594 14.9753 66.9142 14.8999C67.2502 14.461 67.5451 13.9948 67.8468 13.5285C68.009 13.3172 68.1448 13.087 68.2513 12.8428C68.4597 12.5428 68.6476 12.2289 68.8136 11.9035C68.9787 11.5675 69.103 11.213 69.1838 10.8475C69.474 10.3825 69.6397 9.85061 69.6649 9.30303C69.6901 8.75546 69.574 8.21061 69.3278 7.72086C68.9091 6.79377 68.3286 5.94863 67.6136 5.225C66.2066 3.80861 64.5428 2.67303 62.7111 1.87891C61.6864 1.41656 60.6214 1.04933 59.5295 0.781831C58.6456 0.546203 57.7479 0.365299 56.8417 0.240149C55.5025 0.0685233 54.1532 -0.0116577 52.8031 0.000162586C52.3094 0.000162586 51.8226 0.000162584 51.3357 0.06873C50.5061 0.116727 49.6695 0.171581 48.8467 0.295003C47.4792 0.478044 46.1348 0.804392 44.8355 1.26866C43.5864 1.69318 42.4705 2.43792 41.5991 3.42853C41.5572 3.44569 41.518 3.46878 41.4826 3.4971C40.9713 4.12034 40.6415 4.87237 40.5295 5.67069C40.4573 6.26433 40.4298 6.86255 40.4472 7.4603C40.4979 8.45187 40.7303 9.4257 41.1329 10.3333C41.6334 11.5606 42.2231 12.74 42.8196 13.9194C43.0105 14.3944 43.2399 14.853 43.5053 15.2907C43.7853 15.7607 43.8943 16.3129 43.8139 16.854C43.8139 16.998 43.7727 17.142 43.7522 17.2792C43.711 17.5877 43.663 17.8963 43.6356 18.2048C43.5945 18.7876 43.5465 19.3773 43.4573 19.9601C43.4093 20.2893 43.3956 20.6458 43.3545 20.9475C43.3458 21.7324 43.2399 22.5132 43.0391 23.272C43.0391 23.5051 43.0391 23.7382 42.9842 23.9576C42.9225 24.5405 42.8196 25.1301 42.7991 25.713C42.7579 26.6386 42.6139 27.5506 42.5317 28.4557C42.4112 29.5025 42.3814 30.5578 42.4425 31.6098C42.4425 32.0829 42.5522 32.556 42.5454 33.036C42.5454 33.3719 42.5042 33.4062 42.1683 33.4611C42.1065 33.4611 42.0243 33.4611 41.9968 33.5365C41.9694 33.6119 42.0311 33.6942 42.0928 33.7216C42.1948 33.7696 42.2757 33.8534 42.3199 33.9571C42.3642 34.0607 42.3688 34.177 42.3328 34.2839L42.0928 34.7913C41.804 35.4574 41.3816 36.0572 40.8518 36.5535C40.6641 36.7125 40.4877 36.8843 40.3238 37.0677C40.2454 37.1397 40.1829 37.2271 40.1401 37.3245C40.0973 37.4218 40.0752 37.527 40.0752 37.6334C40.0752 37.7398 40.0973 37.845 40.1401 37.9423C40.1829 38.0397 40.2454 38.1272 40.3238 38.1991C40.525 38.4214 40.7557 38.6152 41.0095 38.7751C41.1242 38.8277 41.2248 38.907 41.3029 39.0063C41.3809 39.1056 41.4342 39.222 41.4583 39.346C41.4825 39.4699 41.4767 39.5979 41.4416 39.7192C41.4065 39.8405 41.3429 39.9517 41.2563 40.0436L41.2152 40.0984C41.1329 40.1902 41.0794 40.304 41.0611 40.4258C41.0428 40.5477 41.0606 40.6722 41.1123 40.7841C41.1609 40.9323 41.2252 41.0748 41.3043 41.2092C41.3916 41.302 41.4402 41.4246 41.4402 41.552C41.4402 41.6794 41.3916 41.802 41.3043 41.8949C41.2283 41.9855 41.1908 42.1022 41.1998 42.2201C41.2087 42.338 41.2635 42.4477 41.3523 42.5257C41.3621 42.568 41.3759 42.6094 41.3934 42.6491C41.7155 43.2342 41.8177 43.9152 41.6814 44.569C41.6379 44.8755 41.6219 45.1853 41.6334 45.4947C41.6328 45.6935 41.7074 45.8853 41.8422 46.0315C41.9769 46.1777 42.162 46.2676 42.3602 46.2832C42.6787 46.3278 43.0018 46.3278 43.3202 46.2832C44.4858 46.2078 45.6378 46.0021 46.8034 45.9746C47.2609 45.964 47.7187 45.9778 48.1748 46.0158C48.3763 46.0322 48.5712 46.0956 48.7439 46.2009C49.307 46.5167 49.792 46.9549 50.1632 47.4831C50.9943 48.7453 51.6841 50.0951 52.2202 51.508C52.2202 51.748 52.2888 51.9674 52.2888 52.1937C52.2888 52.42 52.1585 52.5777 51.8911 52.4474C51.754 52.372 51.6237 52.2828 51.5003 52.2006C51.2501 52.0373 50.9667 51.9319 50.6706 51.892L50.6363 51.9331C50.6363 51.9331 50.6363 51.9332 50.6706 51.892L49.7998 51.5492C48.7971 51.1483 47.7628 50.8318 46.7074 50.6029C45.5303 50.3407 44.3328 50.1801 43.1282 50.123C40.9278 49.998 38.7227 50.2626 36.6143 50.9046C36.5377 50.9218 36.4639 50.9495 36.3949 50.9869C36.2509 51.0623 36.2303 51.1515 36.3469 51.2749C36.4105 51.3347 36.482 51.3854 36.5594 51.4257C36.9023 51.6315 37.2451 51.844 37.6017 52.0291C38.0196 52.2804 38.4604 52.4916 38.9182 52.66C38.9204 52.644 38.9204 52.6279 38.9182 52.612C38.9169 52.6279 38.9169 52.644 38.9182 52.66C39.7315 53.0485 40.5755 53.3696 41.4414 53.6199C42.4995 53.9237 43.5826 54.1325 44.6778 54.2439C45.0412 54.285 45.4115 54.3262 45.7818 54.3467C46.0802 54.3606 46.3743 54.4231 46.6526 54.5319C46.5703 54.7376 46.3714 54.8061 46.2137 54.9158C45.9259 55.1066 45.6232 55.274 45.3086 55.4164C44.2752 55.9557 43.291 56.5843 42.3671 57.2951C41.3233 58.1075 40.3673 59.0267 39.5147 60.0378C39.3632 60.2021 39.232 60.3839 39.1239 60.5795C39.0347 60.6618 38.9524 60.7646 39.021 60.8949C39.0896 61.0252 39.213 60.9772 39.3227 60.9909C39.8862 61.0389 40.4528 61.0389 41.0163 60.9909C41.4282 60.9704 41.8382 60.9223 42.2437 60.8469C43.0754 60.7061 43.8975 60.5138 44.7053 60.271C45.8598 59.9221 46.978 59.4629 48.0445 58.8996C49.0113 58.3716 49.9644 57.83 50.8763 57.2128C50.9243 57.2128 50.9655 57.1511 51.0272 57.2128C51.0324 57.2331 51.0324 57.2543 51.0272 57.2746C51.0201 57.3398 51.0063 57.4041 50.986 57.4665C50.8104 58.0278 50.5997 58.5774 50.3552 59.1122C50.2167 59.354 50.115 59.6151 50.0535 59.887C49.7175 60.5726 49.3678 61.2583 49.0524 61.944C48.8398 62.3311 48.6586 62.7346 48.5107 63.1508C48.3694 63.3638 48.2565 63.5943 48.1748 63.8365C47.9828 64.3096 47.7908 64.7827 47.6194 65.2627C47.4959 65.5918 47.6194 65.7358 47.9416 65.8043H48.0719C48.6703 65.8751 49.2728 65.9048 49.8752 65.8935C50.6869 65.8749 51.4931 65.7551 52.2751 65.5369C53.0064 65.3411 53.7162 65.0724 54.3938 64.7347C54.7358 64.6066 55.0569 64.4287 55.3469 64.2067C55.4988 64.1683 55.6427 64.1033 55.772 64.0147C56.3343 63.6787 56.9034 63.3291 57.4588 63.0068C58.597 62.3211 59.749 61.6354 60.8872 60.9909C61.5141 60.6346 62.1596 60.3119 62.8208 60.0241C63.6447 59.655 64.5039 59.3701 65.3852 59.1739C65.7075 59.1122 65.7623 58.9545 65.5909 58.6733L65.1932 58.0562C64.3978 56.8906 63.5339 55.7798 62.6768 54.6278C62.3339 54.189 61.9911 53.7502 61.6208 53.3388C61.5368 53.2593 61.4716 53.162 61.4301 53.054C61.3886 52.946 61.3717 52.8301 61.3809 52.7148C61.4255 52.362 61.4255 52.0049 61.3809 51.652C61.3651 51.4751 61.3138 51.3032 61.2302 51.1465C61.1465 50.9899 61.0322 50.8516 60.894 50.7401C60.8357 50.6903 60.7616 50.663 60.6849 50.663C60.6082 50.663 60.5341 50.6903 60.4758 50.7401C60.2289 50.9115 60.1261 50.8909 59.9684 50.6372C59.8062 50.3835 59.6597 50.1202 59.5295 49.8487C59.3375 49.4099 59.1524 48.971 58.9399 48.5459C58.5971 47.9109 58.3959 47.2091 58.3502 46.4889C58.3317 46.0132 58.3825 45.5374 58.501 45.0764C58.6039 44.8913 58.7136 44.713 58.8096 44.5347C58.9991 44.239 59.1664 43.9296 59.3101 43.6091L59.8381 42.8822L59.9547 42.8205C60.2426 42.6765 60.3043 42.7108 60.3112 43.0262C60.3112 43.1154 60.3112 43.2045 60.3112 43.2937C60.2598 44.1162 60.3012 44.9419 60.4346 45.7552C60.4775 46.1757 60.5766 46.5885 60.7295 46.9826C61.4151 48.3059 62.7179 50.075 62.3339 51.6657C62.3235 51.766 62.3235 51.8671 62.3339 51.9674C62.3339 52.0429 62.3339 52.132 62.4162 52.1663C62.4985 52.2006 62.5739 52.1114 62.6288 52.0429C63.479 50.9595 62.3682 49.067 61.8814 48.0797C61.4572 47.2694 61.194 46.3845 61.1066 45.4741C60.9667 44.1457 61.0689 42.8029 61.4083 41.5109C61.553 40.9825 61.7847 40.482 62.094 40.0298C62.3255 39.7564 62.4689 39.4194 62.5054 39.063C62.5493 39.0087 62.5735 38.941 62.5739 38.871C62.6205 38.7596 62.6755 38.6518 62.7385 38.5488C62.8208 38.4322 62.9168 38.4391 63.0128 38.5488C63.0442 38.5944 63.0717 38.6425 63.095 38.6928C63.1399 38.7767 63.2055 38.8477 63.2857 38.899C63.3658 38.9502 63.4578 38.98 63.5528 38.9855C63.6478 38.991 63.7426 38.9721 63.8281 38.9304C63.9136 38.8887 63.987 38.8258 64.0413 38.7476C64.1578 38.6036 64.2607 38.4459 64.3704 38.2882C64.3906 38.2482 64.4223 38.2152 64.4614 38.1932C64.5004 38.1712 64.5451 38.1613 64.5898 38.1648C64.6995 38.1648 64.7064 38.2745 64.7338 38.3637C64.9583 39.1102 65.0099 39.8981 64.8847 40.6675C64.7407 41.7235 64.391 42.7245 64.343 43.8148C64.3383 43.8708 64.3268 43.9261 64.3087 43.9793C64.1533 44.5698 64.0817 45.1791 64.0961 45.7895C64.0961 46.3106 64.1441 46.8386 64.1921 47.3528C64.228 47.6801 64.2922 48.0036 64.3841 48.3196C64.439 48.4911 64.5418 48.4842 64.6721 48.3196C64.7338 48.2648 64.7338 48.1825 64.7612 48.1139C64.8213 47.7861 64.9251 47.4679 65.0698 47.1677C65.0981 47.229 65.1127 47.2957 65.1127 47.3631C65.1127 47.4306 65.0981 47.4973 65.0698 47.5585C64.9891 47.9485 64.9591 48.3472 64.9806 48.7448C64.9806 48.8339 64.9806 48.9367 65.0492 48.9916C65.1178 49.0465 65.1726 49.211 65.1452 49.3482C65.1178 49.4853 65.1041 49.4784 65.1452 49.5059C65.3089 49.7717 65.4249 50.0641 65.488 50.3698C65.7453 51.0764 66.0523 51.7638 66.4069 52.4268C66.9749 53.3976 67.6792 54.282 68.4982 55.053C68.7891 55.326 69.1009 55.5758 69.4307 55.8004C69.5404 55.8826 69.6981 55.9786 69.8284 55.8552C69.9586 55.7318 69.8284 55.6084 69.7872 55.4918C69.4065 54.5079 69.1754 53.4724 69.1016 52.42C69.0562 52.1228 69.0378 51.8222 69.0467 51.5217C69.0878 51.0898 69.0467 50.6578 69.0467 50.2327C69.0947 49.4853 69.177 48.7448 69.2044 48.0042C69.2136 47.7721 69.2504 47.5419 69.3141 47.3186C69.465 46.8317 69.5335 46.3243 69.6707 45.8306C69.8601 45.0858 69.9885 44.3268 70.0546 43.5611C70.0546 43.5611 70.0066 43.5611 69.9929 43.5611H70.0546C70.0546 43.2388 70.1026 42.9234 70.1301 42.6011C70.1575 42.2789 70.2535 41.8332 70.2603 41.4423C70.2572 40.4629 70.1885 39.4848 70.0546 38.5145Z" fill="white"/>
<path d="M60.9553 51.6517C60.825 51.3637 60.6125 51.3225 60.3793 51.542L59.9542 51.9602C59.2191 52.6445 58.3265 53.1367 57.3555 53.3933C56.884 53.5176 56.4019 53.5979 55.9156 53.6333C55.5954 53.6848 55.269 53.6848 54.9488 53.6333C54.8355 53.6063 54.717 53.6106 54.6059 53.6456C54.4949 53.6806 54.3953 53.7451 54.318 53.8321C54.1671 53.983 54.0368 54.1475 53.8997 54.3052C53.7626 54.4629 53.7557 54.4904 53.8106 54.6069C53.8654 54.7235 53.9888 54.7235 54.0986 54.7304H54.2014C54.7979 54.7304 55.3945 54.7304 55.9979 54.7304C56.1071 54.7442 56.2177 54.7442 56.327 54.7304C56.7933 54.5932 57.2869 54.5315 57.7395 54.3532C57.7716 54.3352 57.8093 54.3301 57.845 54.339C57.8807 54.3479 57.9117 54.3702 57.9315 54.4012C57.3824 54.7435 56.7832 54.998 56.1556 55.1555C55.3582 55.355 54.5324 55.4153 53.7146 55.3337C53.4764 55.2479 53.2161 55.2459 52.9766 55.3282C52.7372 55.4105 52.5331 55.5721 52.3981 55.7863C52.1924 56.0126 52.2198 56.136 52.5009 56.2525C53.0354 56.439 53.5946 56.5453 54.1603 56.568C54.7128 56.6262 55.2706 56.6124 55.8196 56.5268C56.9312 56.3864 57.9898 55.9691 58.8983 55.3132C59.4755 54.9143 59.9693 54.4065 60.3519 53.8184C60.6663 53.3344 60.8981 52.8014 61.0376 52.2414C61.0834 52.0414 61.0541 51.8315 60.9553 51.6517Z" fill="#0D0D0D"/>
<path d="M44.9724 23.8613C45.2123 23.8613 45.4592 23.9025 45.6992 23.923C46.4946 24.0053 47.2968 24.0396 48.0853 24.1425C48.8738 24.2453 49.7721 24.2727 50.6086 24.3756C51.1914 24.4442 51.7811 24.4784 52.3708 24.5333L55.6826 24.8556C56.3134 24.9104 56.9511 24.931 57.5751 25.0064C58.4047 25.1024 59.2412 25.1367 60.0641 25.2395C60.6126 25.315 61.168 25.363 61.7234 25.3972C61.8902 25.4082 62.05 25.469 62.182 25.5716C62.314 25.6743 62.4122 25.8142 62.4639 25.9732C62.4909 26.0348 62.5049 26.1014 62.5049 26.1686C62.5049 26.2359 62.4909 26.3024 62.4639 26.364C62.3665 26.6436 62.1813 26.8841 61.9359 27.0497C61.7758 27.1625 61.6471 27.3142 61.5619 27.4906C61.4767 27.6669 61.4379 27.8621 61.4491 28.0577C61.4676 28.3212 61.5881 28.5672 61.7851 28.7433C61.9412 28.9045 62.0584 29.0991 62.1279 29.3124C62.1668 29.4272 62.1791 29.5493 62.164 29.6695C62.1489 29.7897 62.1068 29.9049 62.0409 30.0065C61.9749 30.1081 61.8867 30.1934 61.7831 30.2561C61.6794 30.3188 61.5629 30.3572 61.4423 30.3684C61.2531 30.389 61.0623 30.389 60.8731 30.3684C60.1326 30.2998 59.3921 30.2724 58.6516 30.1558C58.1784 30.0804 57.6985 30.1215 57.2254 30.0461C56.7522 29.9707 56.1214 29.9227 55.566 29.8678C55.1409 29.8267 54.7021 29.8678 54.2701 29.7718C53.4473 29.6416 52.6108 29.6553 51.788 29.5319C51.1846 29.4839 50.5675 29.4839 49.9846 29.4084C49.4018 29.333 48.7024 29.2782 48.0579 29.237C47.1939 29.1822 46.3369 29.0313 45.466 29.0039C45.0565 28.983 44.6487 28.9349 44.2455 28.8599C44.101 28.8322 43.9664 28.7669 43.8552 28.6706C43.744 28.5742 43.6601 28.4502 43.6121 28.3111C43.5642 28.172 43.5537 28.0227 43.5818 27.8783C43.61 27.7339 43.6757 27.5994 43.7724 27.4885C43.8845 27.3674 44.0035 27.2529 44.129 27.1457C44.2404 27.077 44.3371 26.987 44.4136 26.8808C44.4901 26.7746 44.5449 26.6544 44.5749 26.527C44.6048 26.3995 44.6093 26.2675 44.5881 26.1383C44.5669 26.0092 44.5204 25.8855 44.4512 25.7744C44.3491 25.5914 44.2321 25.4171 44.1016 25.2532C43.985 25.1311 43.9093 24.9758 43.8847 24.8088C43.8602 24.6418 43.888 24.4713 43.9644 24.3207C44.0251 24.1738 44.1326 24.0511 44.2703 23.9718C44.4079 23.8924 44.568 23.8608 44.7255 23.8819C44.7941 23.8682 44.8832 23.8613 44.9724 23.8613Z" fill="#0D0D0D"/>
<path d="M67.4426 9.59962C67.3386 8.62822 66.9443 7.71068 66.3112 6.96663C66.1037 6.71793 65.8742 6.48845 65.6255 6.28096L65.3855 6.04097C65.3227 5.97133 65.2563 5.90496 65.1867 5.84213L64.9878 5.66385C64.8835 5.5696 64.7711 5.48471 64.6519 5.41015C64.577 5.36096 64.508 5.30345 64.4462 5.23873C64.3635 5.15599 64.2878 5.06655 64.2199 4.97132C63.6645 4.62163 63.1434 4.20336 62.5537 3.90167C62.5106 3.90883 62.4665 3.90883 62.4234 3.90167C62.1491 3.73025 61.8406 3.63425 61.5663 3.46284C61.2124 3.23009 60.8328 3.03911 60.435 2.89373C59.516 2.52799 58.5747 2.2211 57.6168 1.97492C57.1506 1.88578 56.6843 1.77608 56.2455 1.67322C55.8067 1.57037 55.2033 1.45381 54.7233 1.37153C54.0151 1.29722 53.3024 1.27431 52.5908 1.30296C51.4245 1.27646 50.2588 1.37763 49.1145 1.60466C48.5865 1.6938 48.0791 1.8515 47.5511 1.92692C47.1521 1.9714 46.759 2.05876 46.3786 2.18748C45.8781 2.37261 45.3707 2.53032 44.8701 2.72231C44.0519 3.03268 43.3054 3.50626 42.676 4.11423C42.478 4.31996 42.3075 4.55043 42.1686 4.7999C42.0863 4.94389 42.1 5.10845 42.0177 5.23873C41.7794 5.68041 41.6611 6.17694 41.6749 6.67865C41.6898 7.70349 41.8847 8.71773 42.2509 9.67505C42.5624 10.552 42.9288 11.4085 43.348 12.2395C43.7114 13.0349 44.1502 13.7959 44.5479 14.5776C44.7673 15.0027 45.021 15.4073 45.2336 15.8461C45.3323 16.0606 45.377 16.296 45.3638 16.5318C45.3296 17.3752 45.2198 18.2117 45.1307 19.0482C45.0141 20.0973 44.9456 21.1532 44.829 22.2023C44.829 22.3875 44.781 22.5794 44.7673 22.7646C44.7673 23.08 44.7673 23.128 45.1101 23.1828C45.453 23.2377 45.7958 23.1828 46.1386 23.2788C46.3512 23.32 46.5775 23.3268 46.8243 23.3474L48.0174 23.4571C48.7031 23.5188 49.3887 23.6217 50.0744 23.6148C50.2858 23.6161 50.4968 23.6344 50.7052 23.6697C51.0762 23.7428 51.4521 23.7886 51.8297 23.8068C52.728 23.8068 53.6194 23.9919 54.5176 24.0468C55.2033 24.0879 55.9301 24.1839 56.6363 24.2525C56.835 24.2422 57.0341 24.2422 57.2329 24.2525C57.7819 24.3438 58.3361 24.4011 58.8922 24.4239L60.1538 24.5336L61.8749 24.7187C62.0874 24.7187 62.1766 24.6639 62.204 24.4376C62.2074 24.3828 62.2074 24.3279 62.204 24.2731C62.204 23.7039 62.3548 23.1554 62.3206 22.5794C62.3233 22.2807 62.3742 21.9843 62.4714 21.7018C62.5397 21.2847 62.5741 20.8628 62.5743 20.4401C62.6657 19.8336 62.7229 19.2224 62.7457 18.6094C62.7433 18.2615 62.8732 17.9257 63.1091 17.67C63.5479 17.1283 63.973 16.5729 64.3982 16.0175C64.6313 15.6953 64.8438 15.3319 65.0838 15.0233C65.1556 14.9081 65.2515 14.8099 65.365 14.7353C65.6941 14.2554 66.0506 13.7685 66.3523 13.2885C66.3546 13.1321 66.4023 12.9797 66.4895 12.8497C66.5896 12.713 66.6747 12.5659 66.7432 12.4109C66.8099 12.2969 66.8672 12.1777 66.9146 12.0543L67.1203 11.5881C67.1416 11.5413 67.1599 11.4932 67.1751 11.4441C67.3457 11.0294 67.4453 10.589 67.47 10.1413C67.4732 10.1048 67.4732 10.0681 67.47 10.0316C67.4563 9.79847 67.4494 9.68876 67.4426 9.59962ZM58.3642 14.749C58.3585 14.7935 58.3421 14.8359 58.3162 14.8725C58.2751 14.9273 58.2134 14.9205 58.1928 14.8725C58.1828 14.7859 58.1828 14.6985 58.1928 14.6119C58.269 13.5129 58.4318 12.4215 58.6796 11.3481C58.7619 11.0258 58.8579 10.7104 58.9676 10.395C59.0466 10.1046 59.2054 9.84209 59.426 9.63728C59.6466 9.43248 59.9201 9.29354 60.2155 9.23622C60.3182 9.21078 60.4254 9.20945 60.5286 9.23232C60.6319 9.25519 60.7285 9.30164 60.8108 9.36804C60.8932 9.43444 60.959 9.51898 61.0033 9.61507C61.0475 9.71115 61.0689 9.81616 61.0658 9.92189C61.0543 10.3238 60.9511 10.7178 60.7641 11.0738C60.4131 11.6919 59.9946 12.2692 59.5162 12.7949C59.0032 13.3611 58.6113 14.0261 58.3642 14.749ZM63.0474 12.1092C63.2334 11.8417 63.4656 11.6095 63.7331 11.4235C63.8375 11.3579 63.9506 11.3071 64.069 11.2727C64.1667 11.2284 64.2745 11.2112 64.381 11.223C64.4876 11.2348 64.589 11.2751 64.6747 11.3396C64.7603 11.4042 64.8269 11.4906 64.8675 11.5899C64.9082 11.6891 64.9213 11.7974 64.9056 11.9035C64.891 12.1691 64.8084 12.4265 64.6656 12.6509C64.4079 13.0224 64.0794 13.3393 63.6988 13.5834C63.0101 14.143 62.3701 14.76 61.7857 15.4279C61.7446 15.4759 61.7035 15.5513 61.628 15.517C61.5526 15.4827 61.5663 15.3799 61.628 15.3113C61.8474 14.7079 62.0326 14.0908 62.3137 13.5011C62.5002 13.0088 62.7466 12.5413 63.0474 12.1092ZM54.0033 8.68082C54.0649 8.5747 54.1411 8.47776 54.2296 8.39284C54.4065 8.20765 54.6483 8.09842 54.9042 8.08819C55.16 8.07795 55.4099 8.16752 55.601 8.33798C55.7995 8.4875 55.9553 8.68652 56.0527 8.91515C56.1502 9.14378 56.1859 9.39399 56.1564 9.64076C56.1131 9.92112 56.0513 10.1983 55.9712 10.4704C55.8204 11.0395 55.601 11.5881 55.4021 12.1435C55.073 13.0623 54.7781 13.9948 54.5244 14.941C54.5244 15.0507 54.5244 15.2427 54.3599 15.229C54.1953 15.2153 54.2433 15.0164 54.2365 14.893C54.2365 14.5433 54.2365 14.2074 54.2365 13.8577C54.2219 13.0019 54.1555 12.1478 54.0376 11.3001C53.9553 10.8818 53.8731 10.4704 53.8113 10.0522C53.7226 9.59086 53.7901 9.11313 54.0033 8.69453V8.68082ZM45.5833 12.4452C45.619 12.403 45.6386 12.3496 45.6386 12.2943C45.6386 12.2391 45.619 12.1856 45.5833 12.1435C45.4667 11.9926 45.3501 11.8418 45.2267 11.6978C44.9242 11.4078 44.69 11.0541 44.541 10.6624C44.4758 10.5026 44.4573 10.3275 44.4877 10.1576C44.518 9.98768 44.596 9.82985 44.7124 9.70247C44.9319 9.5722 45.261 9.70247 45.5833 9.96303C45.8986 10.3199 46.1325 10.741 46.2689 11.1972C46.5675 12.1229 46.7967 13.0694 46.9546 14.0291C46.6735 13.5902 46.4266 13.1926 46.1524 12.8154C46.0769 12.7126 45.9741 12.596 45.8232 12.692C45.8232 12.5206 45.7547 12.4383 45.5833 12.4452ZM50.1156 13.2268C49.8849 12.4482 49.5431 11.7069 49.1008 11.0258C48.6902 10.3735 48.498 9.60739 48.5522 8.83852C48.5462 8.71974 48.5743 8.60173 48.6331 8.49837C48.692 8.39501 48.7791 8.31062 48.8843 8.25514C48.9895 8.19966 49.1084 8.1754 49.2269 8.18522C49.3454 8.19504 49.4587 8.23852 49.5533 8.31055C49.828 8.46966 50.0576 8.69598 50.2208 8.96826C50.3839 9.24053 50.4751 9.54982 50.4858 9.86704C50.5692 10.7077 50.5875 11.5536 50.5407 12.3972C50.5389 12.9718 50.4884 13.5452 50.3898 14.1114C50.287 13.7754 50.191 13.508 50.1156 13.2268Z" fill="#0D0D0D"/>
<path d="M42.4426 57.5962H42.4769C44.028 56.3387 45.7652 55.3302 47.6263 54.6067C48.1063 54.4147 48.6 54.2433 49.0937 54.0924C49.4552 53.9638 49.8267 53.8652 50.2045 53.7976C50.4719 53.7496 50.7324 53.681 50.9998 53.633C51.2673 53.585 51.5552 53.4685 51.6855 53.5987C51.5237 53.7167 51.3488 53.8156 51.1644 53.8936C50.801 54.0307 50.4787 54.161 50.0948 54.3324C49.4325 54.6127 48.7868 54.9309 48.1612 55.2855C47.7217 55.5457 47.3043 55.8415 46.9132 56.17C46.835 56.2403 46.7617 56.3159 46.6938 56.3963C46.6335 56.4677 46.596 56.5555 46.5863 56.6484C46.5765 56.7413 46.5948 56.8351 46.639 56.9174C46.6744 56.9915 46.7312 57.0534 46.8021 57.0949C46.873 57.1365 46.9547 57.1558 47.0366 57.1505C47.1887 57.1573 47.3409 57.1435 47.4892 57.1094C47.9344 57.0429 48.3627 56.8916 48.7508 56.6637C48.9017 56.5609 49.0937 56.5403 49.2582 56.4374C49.7382 56.1495 50.2525 55.9026 50.7187 55.5941C51.1345 55.2488 51.577 54.937 52.0421 54.6615C52.1312 54.6204 52.0421 54.8467 52.0421 54.8467C51.9406 54.9687 51.8281 55.0812 51.7061 55.1827L51.0547 55.8135C50.6227 56.2112 50.1839 56.6089 49.7313 56.986C49.2788 57.3631 48.8811 57.5962 48.4423 57.8774C47.6356 58.3686 46.7722 58.7601 45.871 59.043C45.1853 59.2624 44.5477 59.4613 43.8757 59.6258C42.8508 59.8827 41.8078 60.0615 40.7559 60.1606C40.6053 60.1743 40.4539 60.1743 40.3033 60.1606C40.1593 60.1606 40.1113 60.0509 40.1868 59.9138L40.2553 59.8315C40.749 59.3036 41.2358 58.7687 41.757 58.2819C41.9627 58.0419 42.1889 57.8156 42.4426 57.5962Z" fill="#0D0D0D"/>
<path d="M49.9848 53.0853C49.0622 53.1019 48.1411 53.0051 47.2421 52.7973C46.8972 52.7374 46.5723 52.5938 46.2959 52.3791C46.2317 52.3376 46.1829 52.2763 46.1569 52.2045C46.1309 52.1326 46.1291 52.0543 46.1519 51.9814C46.1728 51.9091 46.2145 51.8446 46.2718 51.7958C46.3291 51.7471 46.3995 51.7162 46.4741 51.7071H46.6181C47.0771 51.6875 47.5369 51.7174 47.9895 51.7962L48.6751 51.9471L49.0591 52.0294C49.1708 52.0541 49.2808 52.0862 49.3882 52.1254C49.4842 52.1665 49.6077 52.1939 49.6694 52.0842C49.7311 51.9745 49.5528 51.8442 49.4568 51.7962C49.2957 51.7008 49.1285 51.6161 48.9563 51.5425C48.6683 51.4465 48.3666 51.3848 48.0718 51.2957L47.1255 51.0146C45.8188 50.6614 44.4793 50.4431 43.128 50.3632C42.0624 50.3231 40.9953 50.3483 39.9328 50.4386C39.11 50.4935 38.3077 50.6923 37.4918 50.802C37.3204 50.9186 36.9364 50.8637 37.1215 51.2683C37.1442 51.3058 37.1751 51.3377 37.2119 51.3614C37.2488 51.3852 37.2906 51.4002 37.3341 51.4054L37.4712 51.4808C37.5199 51.551 37.5934 51.6001 37.6769 51.618C38.376 52.0726 39.1263 52.4432 39.9122 52.7219C40.5979 52.9619 41.2836 53.1676 41.9693 53.3596L43.0938 53.5721C43.7492 53.7226 44.4171 53.8121 45.0891 53.8395C46.2701 53.9105 47.4552 53.8645 48.6271 53.7024L49.2168 53.6133C49.45 53.5653 49.6762 53.4899 49.9025 53.4213C50.0191 53.4213 50.355 53.3596 50.3276 53.1813C50.3002 53.003 50.1082 53.0785 49.9848 53.0853Z" fill="#0D0D0D"/>
</g>
<defs>
<clipPath id="clip0_8466_49272">
<rect width="33.9752" height="65.9002" fill="white" transform="translate(36.2715)"/>
</clipPath>
</defs>
</svg>
